<svg width="806" height="298" viewBox="0 0 806 298" fill="none" xmlns="http://www.w3.org/2000/svg">
<g clip-path="url(#clip0_1_1129)">
<path d="M409.667 217.005C409.667 224.687 408.18 230.239 403.57 236.732C398.96 243.225 394.3 247.934 385.823 253.634C379.527 257.897 312.951 297.5 312.951 297.5C312.951 297.5 236.957 258.145 227.786 252.791C220.3 248.43 214.798 242.531 210.882 235.642C206.916 228.801 204.933 222.259 204.933 215.964L204.834 163.82C204.834 158.12 206.172 152.717 208.8 147.463C211.476 142.259 214.996 137.649 219.358 133.635C223.77 129.62 228.529 126.447 233.735 124.118C238.94 121.788 253.266 119.756 262.288 121.094C276.714 123.226 306.507 132.594 306.507 132.594C306.507 132.594 336.945 121.986 346.462 120.153C360.442 117.476 375.611 121.144 382.799 124.713C388.847 127.687 395.192 132.742 400.992 139.682C406.792 146.67 409.172 159.855 409.469 166.993C410.361 185.629 409.568 217.005 409.568 217.005M366.44 200.995V187.067C366.391 181.069 365.35 167.439 360.987 163.275C356.575 159.062 348.842 157.278 341.406 159.458C329.509 162.928 308.54 169.818 308.54 169.818C308.54 169.818 284.596 160.846 269.228 159.607C263.478 159.161 256.687 162.234 253.861 165.258C251.035 168.232 248.805 175.667 248.805 179.037V200.697C249.003 207.24 250.887 216.212 254.902 219.433C270.269 231.825 311.762 251.057 311.762 251.057C311.762 251.057 355.98 222.11 360.145 219.086C364.309 216.063 366.391 207.984 366.391 200.995" fill="#EF7723"/>
<path d="M176.181 227.959H197.695V287.785H160.962L157.988 266.967H42.4341L39.4597 287.785H0V227.959H20.6718C28.3555 220.573 32.4204 209.322 33.9572 191.181L37.4768 151.677C37.4768 151.677 37.3777 142.953 45.0119 134.081C51.4563 126.547 64.1964 125.307 64.1964 125.307H176.181V227.959ZM82.1913 162.631L79.4152 195.295C78.1759 208.727 75.3998 219.186 70.7896 227.959H130.723V162.631H82.2409H82.1913Z" fill="white"/>
<path d="M571.819 125.307H615.691V266.918H570.183V189.545L532.459 230.982H511.886L474.161 189.545V266.918H428.654V125.307H472.823L522.148 184.886L571.819 125.307Z" fill="white"/>
<path d="M803.125 178.839C804.067 142.903 774.918 122.284 721.875 122.284C698.527 122.284 673.294 123.721 650.54 129.57V169.074C671.46 162.432 685.737 158.269 717.067 157.823C743.786 157.426 754.296 162.879 754.296 177.996V181.565C739.722 178.541 722.966 177.203 709.135 177.203C660.604 177.203 635.619 195.047 635.619 224.687C635.619 251.057 655.746 270.338 698.477 270.338C722.52 270.338 743.737 264.886 764.21 254.031L776.653 266.967H803.125C803.125 266.967 801.638 236.831 803.125 178.888M712.754 237.872C696.792 237.872 686.877 232.122 686.877 222.507C686.877 211.552 699.221 205.753 719.694 205.753C729.757 205.753 741.903 207.389 755.039 210.412C753.304 226.075 736.351 237.872 712.754 237.872Z" fill="white"/>
<path d="M161.408 14.775V33.4614H137.019V80.4501H112.976V33.4614H88.2887V14.775H161.408Z" fill="white"/>
<path d="M239.848 15H261.263V80.6751H237.617V44.7892L220.663 63.9713H210.6L193.597 44.7892V80.6751H170V15H191.564L215.607 42.6083L239.848 15Z" fill="white"/>
<path d="M271.013 47.9843C271.013 27.1665 282.068 13.1393 313.992 13.1393C341.208 13.1393 356.873 27.1665 356.873 47.9843C356.873 68.8021 345.322 82.8293 313.992 82.8293C282.663 82.8293 271.013 68.8021 271.013 47.9843ZM332.83 47.9843C332.83 37.972 329.36 31.1318 313.992 31.1318C297.485 31.1318 295.056 37.972 295.056 47.9843C295.056 57.9967 298.526 64.8368 313.992 64.8368C328.319 64.8368 332.83 58.1454 332.83 47.9843Z" fill="white"/>
<path d="M504.5 81.9371V102.557H480.854V81.9371C453.043 81.9371 440.849 67.0673 440.849 47.5878C440.849 28.1083 451.507 13.0898 480.854 13.0898V0.5H504.5V13.0898C532.855 13.0898 544.356 28.0092 544.356 47.5878C544.356 67.1664 533.896 81.6397 504.5 81.9371ZM481.597 64.242V30.7849C467.767 30.7849 464.197 38.4181 464.197 47.5878C464.197 56.7575 466.775 64.242 481.597 64.242ZM503.607 64.242C519.124 64.242 521.206 56.6088 521.206 47.5878C521.206 38.5668 518.132 30.7849 503.607 30.7849V64.242Z" fill="white"/>
<path d="M574.942 55.1218C575.339 62.0115 582.874 66.3238 597.101 66.3238C611.081 66.3238 624.019 64.242 624.763 63.3498V79.0623C624.763 79.0623 616.038 82.5319 592.293 82.1354C560.021 81.5406 551.098 68.2569 551.098 47.7861C551.098 27.3153 563.392 13.2385 592.838 13.1889C626.795 13.0898 633.636 31.9745 631.901 55.1714H574.942V55.1218ZM611.378 41.8877C610.734 34.8989 608.255 29.0501 592.987 29.0501C580.643 29.0501 574.645 34.5519 574.645 41.8877H611.378Z" fill="white"/>
<path d="M724.899 47.5878C724.899 67.8107 711.663 81.9371 691.24 81.9371C681.226 81.9371 671.411 80.351 665.462 74.8987V102.557H641.816V14.775H655.845L662.537 20.7725C670.419 15.469 680.433 13.3872 691.289 13.3872C711.713 13.3872 724.949 27.3648 724.949 47.6373M701.6 47.6373C701.6 37.7241 695.503 30.9831 684.746 30.9831C673.988 30.9831 665.065 38.8146 665.065 38.8146V55.2705C665.065 55.2705 670.022 63.6968 684.746 64.3411C695.453 64.7872 701.6 57.6001 701.6 47.6869" fill="white"/>
<path d="M806 39.6077C806.446 23.003 793.161 13.4863 769.069 13.4863C758.46 13.4863 747.009 14.1803 736.698 16.8568V35.0971C746.216 32.024 752.71 30.091 766.937 29.8927C779.082 29.6944 783.841 32.2223 783.841 39.2111V40.8468C777.248 39.459 769.614 38.8146 763.318 38.8146C741.258 38.8146 729.906 47.0426 729.906 60.7724C729.906 72.9656 739.028 81.8875 758.46 81.8875C769.366 81.8875 778.983 79.3597 788.303 74.3535L793.954 80.3014H806C806 80.3014 805.306 66.3733 806 39.6077ZM764.954 66.869C757.716 66.869 753.205 64.1924 753.205 59.7811C753.205 54.7253 758.807 52.0487 768.127 52.0487C772.687 52.0487 778.19 52.7922 784.188 54.1801C783.395 61.4167 775.711 66.869 764.954 66.869Z" fill="white"/>
<path d="M83.034 39.6077C83.4802 23.003 69.9965 13.4863 45.4085 13.4863C34.6017 13.4863 22.9025 14.1803 12.3932 16.8568V35.0971C22.0598 32.024 28.7025 30.091 43.1777 29.8927C55.5213 29.6944 60.429 32.2223 60.429 39.2111V40.8468C53.6871 39.459 45.9538 38.8146 39.5093 38.8146C17.053 38.8146 5.453 47.0426 5.453 60.7724C5.453 72.9656 14.7726 81.8875 34.5521 81.8875C45.7059 81.8875 55.5213 79.3597 64.9896 74.3535L70.74 80.3014H82.9845C82.9845 80.3014 82.2904 66.3733 82.9845 39.6077M41.1452 66.869C33.7589 66.869 29.1487 64.1924 29.1487 59.7811C29.1487 54.7253 34.8495 52.0487 44.3179 52.0487C48.9777 52.0487 54.5794 52.7922 60.6768 54.1801C59.8837 61.4167 52.0016 66.869 41.0957 66.869" fill="white"/>
<path d="M407.734 64.2915C395.292 64.2915 389.095 57.4019 389.095 47.6373C389.095 37.8728 395.639 30.9831 407.586 30.9831C414.327 30.9831 430.587 33.2136 433.165 35.9893L433.363 35.791V16.7081C424.985 14.1802 414.823 13.1393 405.95 13.1393C379.775 13.1393 364.507 27.4144 364.507 47.6373C364.507 67.8603 379.775 82.1353 405.751 82.1353C414.526 82.1353 424.589 81.144 433.314 78.6657V58.8888C427.91 63.1515 414.972 64.3411 407.685 64.3411" fill="white"/>
</g>
<defs>
<clipPath id="clip0_1_1129">
<rect width="806" height="297" fill="white" transform="translate(0 0.5)"/>
</clipPath>
</defs>
</svg>
