<svg width="98" height="37" viewBox="0 0 98 37" fill="none" xmlns="http://www.w3.org/2000/svg">
<path d="M49.8103 26.501C49.8103 27.4414 49.6295 28.121 49.0689 28.9158C48.5084 29.7106 47.9418 30.2869 46.9111 30.9847C46.1457 31.5064 38.0509 36.3541 38.0509 36.3541C38.0509 36.3541 28.811 31.5368 27.6959 30.8815C26.7858 30.3476 26.1168 29.6256 25.6406 28.7823C25.1584 27.945 24.9173 27.1442 24.9173 26.3736L24.9053 19.991C24.9053 19.2933 25.068 18.6319 25.3875 17.9888C25.7129 17.3518 26.1409 16.7875 26.6713 16.2961C27.2077 15.8047 27.7863 15.4164 28.4192 15.1312C29.0521 14.846 30.794 14.5973 31.891 14.7611C33.6449 15.022 37.2674 16.1687 37.2674 16.1687C37.2674 16.1687 40.9682 14.8703 42.1254 14.6458C43.8251 14.3182 45.6695 14.7672 46.5435 15.204C47.2788 15.568 48.0503 16.1869 48.7555 17.0363C49.4607 17.8918 49.75 19.5056 49.7862 20.3793C49.8947 22.6605 49.7982 26.501 49.7982 26.501M44.5544 24.5413V22.8365C44.5484 22.1024 44.4218 20.4339 43.8914 19.9243C43.355 19.4085 42.4147 19.1901 41.5106 19.4571C40.0641 19.8818 37.5145 20.7251 37.5145 20.7251C37.5145 20.7251 34.6033 19.627 32.7348 19.4753C32.0356 19.4207 31.2099 19.7968 30.8663 20.1669C30.5228 20.531 30.2515 21.441 30.2515 21.8536V24.5049C30.2756 25.3058 30.5047 26.404 30.9929 26.7983C32.8614 28.3151 37.9063 30.6692 37.9063 30.6692C37.9063 30.6692 43.2827 27.126 43.789 26.7559C44.2953 26.3858 44.5484 25.3968 44.5484 24.5413" fill="#EF7723"/>
<path d="M21.4212 27.8417H24.0371V35.1647H19.5708L19.2092 32.6165H5.15941L4.79777 35.1647H0V27.8417H2.5134C3.44764 26.9377 3.94189 25.5605 4.12873 23.3399L4.55668 18.5044C4.55668 18.5044 4.54462 17.4365 5.47283 16.3505C6.25639 15.4283 7.80542 15.2766 7.80542 15.2766H21.4212V27.8417ZM9.99335 19.8452L9.65581 23.8435C9.50513 25.4876 9.1676 26.7678 8.60705 27.8417H15.8941V19.8452H9.99937H9.99335Z" fill="white"/>
<path d="M69.5256 15.2766H74.8598V32.6105H69.3267V23.1397L64.7399 28.2118H62.2386L57.6518 23.1397V32.6105H52.1187V15.2766H57.489L63.4862 22.5694L69.5256 15.2766Z" fill="white"/>
<path d="M97.6491 21.8288C97.7636 17.4302 94.2196 14.9062 87.7703 14.9062C84.9314 14.9062 81.8635 15.0822 79.0969 15.7981V20.6336C81.6405 19.8206 83.3764 19.311 87.1856 19.2564C90.4344 19.2078 91.7122 19.8752 91.7122 21.7257V22.1625C89.9402 21.7924 87.9029 21.6286 86.2213 21.6286C80.3205 21.6286 77.2827 23.8128 77.2827 27.4409C77.2827 30.6687 79.7298 33.0288 84.9254 33.0288C87.8487 33.0288 90.4284 32.3614 92.9177 31.0327L94.4305 32.6162H97.6491C97.6491 32.6162 97.4683 28.9274 97.6491 21.8349M86.6613 29.0548C84.7205 29.0548 83.515 28.351 83.515 27.174C83.515 25.8332 85.0158 25.1233 87.5051 25.1233C88.7286 25.1233 90.2054 25.3235 91.8026 25.6936C91.5916 27.6108 89.5303 29.0548 86.6613 29.0548Z" fill="white"/>
<path d="M19.6252 1.74662V4.03393H16.6597V9.78559H13.7365V4.03393H10.7349V1.74662H19.6252Z" fill="white"/>
<path d="M29.2928 1.74662H31.8966V9.78559H29.0216V5.39297L26.9602 7.74096H25.7367L23.6693 5.39297V9.78559H20.8003V1.74662H23.4222L26.3455 5.12602L29.2928 1.74662Z" fill="white"/>
<path d="M32.9517 5.81187C32.9517 3.26367 34.2958 1.54667 38.1774 1.54667C41.4864 1.54667 43.391 3.26367 43.391 5.81187C43.391 8.36007 41.9867 10.0771 38.1774 10.0771C34.3681 10.0771 32.9517 8.36007 32.9517 5.81187ZM40.4678 5.81187C40.4678 4.58631 40.0459 3.74904 38.1774 3.74904C36.1703 3.74904 35.8749 4.58631 35.8749 5.81187C35.8749 7.03743 36.2968 7.8747 38.1774 7.8747C39.9193 7.8747 40.4678 7.05564 40.4678 5.81187Z" fill="white"/>
<path d="M61.3402 9.96836V12.4923H58.4651V9.96836C55.0838 9.96836 53.6011 8.14821 53.6011 5.76382C53.6011 3.37944 54.897 1.54109 58.4651 1.54109V3.43323e-05H61.3402V1.54109C64.7878 1.54109 66.1862 3.3673 66.1862 5.76382C66.1862 8.16035 64.9144 9.93196 61.3402 9.96836ZM58.5556 7.80239V3.70706C56.8739 3.70706 56.44 4.6414 56.44 5.76382C56.44 6.88625 56.7534 7.80239 58.5556 7.80239ZM61.2317 7.80239C63.1183 7.80239 63.3714 6.86805 63.3714 5.76382C63.3714 4.6596 62.9977 3.70706 61.2317 3.70706V7.80239Z" fill="white"/>
<path d="M69.905 6.6855C69.9532 7.52884 70.8694 8.05668 72.5992 8.05668C74.299 8.05668 75.8721 7.80186 75.9625 7.69265V9.61594C75.9625 9.61594 74.9017 10.0406 72.0146 9.9921C68.0908 9.91929 67.0059 8.2933 67.0059 5.78756C67.0059 3.28183 68.5006 1.55876 72.0809 1.55269C76.2096 1.54056 77.0414 3.85214 76.8304 6.69157H69.905V6.6855ZM74.3351 5.06557C74.2568 4.21011 73.9554 3.49418 72.099 3.49418C70.5982 3.49418 69.8688 4.16764 69.8688 5.06557H74.3351Z" fill="white"/>
<path d="M88.138 5.76376C88.138 8.23916 86.5287 9.96829 84.0454 9.96829C82.8279 9.96829 81.6345 9.77414 80.9112 9.10676V12.4922H78.0361V1.74731H79.7419L80.5556 2.48143C81.5139 1.83225 82.7314 1.57743 84.0514 1.57743C86.5347 1.57743 88.144 3.28836 88.144 5.76983M85.3051 5.76983C85.3051 4.5564 84.5638 3.73126 83.2558 3.73126C81.9479 3.73126 80.863 4.68987 80.863 4.68987V6.70417C80.863 6.70417 81.4657 7.73558 83.2558 7.81446C84.5577 7.86906 85.3051 6.98932 85.3051 5.77589" fill="white"/>
<path d="M97.9986 4.78678C98.0528 2.75428 96.4375 1.58939 93.5082 1.58939C92.2183 1.58939 90.826 1.67433 89.5723 2.00196V4.23467C90.7296 3.8585 91.5192 3.62188 93.249 3.59762C94.7257 3.57335 95.3043 3.88277 95.3043 4.73824V4.93846C94.5027 4.76858 93.5745 4.6897 92.809 4.6897C90.1268 4.6897 88.7466 5.69685 88.7466 7.37745C88.7466 8.86997 89.8556 9.96205 92.2183 9.96205C93.5443 9.96205 94.7137 9.65263 95.8468 9.03985L96.5339 9.7679H97.9986C97.9986 9.7679 97.9142 8.06304 97.9986 4.78678ZM93.0079 8.12371C92.1279 8.12371 91.5794 7.79608 91.5794 7.25611C91.5794 6.63726 92.2605 6.30963 93.3937 6.30963C93.9482 6.30963 94.6172 6.40064 95.3465 6.57052C95.2501 7.45632 94.3158 8.12371 93.0079 8.12371Z" fill="white"/>
<path d="M10.0959 4.78678C10.1501 2.75428 8.51069 1.58939 5.52113 1.58939C4.20717 1.58939 2.78471 1.67433 1.50691 2.00196V4.23467C2.68225 3.8585 3.48991 3.62188 5.2499 3.59762C6.75071 3.57335 7.34742 3.88277 7.34742 4.73824V4.93846C6.5277 4.76858 5.58743 4.6897 4.80387 4.6897C2.07349 4.6897 0.663086 5.69685 0.663086 7.37745C0.663086 8.86997 1.79623 9.96205 4.20114 9.96205C5.55729 9.96205 6.75071 9.65263 7.90193 9.03985L8.6011 9.7679H10.0899C10.0899 9.7679 10.0055 8.06304 10.0899 4.78678M5.00278 8.12371C4.1047 8.12371 3.54416 7.79608 3.54416 7.25611C3.54416 6.63726 4.2373 6.30963 5.38853 6.30963C5.9551 6.30963 6.63619 6.40064 7.37755 6.57052C7.28112 7.45632 6.32277 8.12371 4.99675 8.12371" fill="white"/>
<path d="M49.5747 7.80796C48.0618 7.80796 47.3084 6.96463 47.3084 5.7694C47.3084 4.57417 48.104 3.73084 49.5566 3.73084C50.3763 3.73084 52.3533 4.00386 52.6667 4.34362L52.6908 4.31935V1.9835C51.6722 1.67408 50.4366 1.54667 49.3577 1.54667C46.1753 1.54667 44.3188 3.294 44.3188 5.7694C44.3188 8.2448 46.1753 9.99213 49.3336 9.99213C50.4004 9.99213 51.624 9.87079 52.6848 9.56744V7.14664C52.0278 7.66842 50.4547 7.81403 49.5687 7.81403" fill="white"/>
</svg>
