<svg width="16" height="20" viewBox="0 0 16 20" fill="none" xmlns="http://www.w3.org/2000/svg">
<path d="M8 19.6556C7.76667 19.6556 7.53333 19.6139 7.3 19.5306C7.06667 19.4472 6.85833 19.3222 6.675 19.1556C5.59167 18.1556 4.63333 17.1806 3.8 16.2306C2.96667 15.2806 2.27083 14.3597 1.7125 13.4681C1.15417 12.5764 0.729167 11.7181 0.4375 10.8931C0.145833 10.0681 0 9.28057 0 8.53057C0 6.03057 0.804167 4.0389 2.4125 2.55557C4.02083 1.07223 5.88333 0.330566 8 0.330566C10.1167 0.330566 11.9792 1.07223 13.5875 2.55557C15.1958 4.0389 16 6.03057 16 8.53057C16 9.28057 15.8542 10.0681 15.5625 10.8931C15.2708 11.7181 14.8458 12.5764 14.2875 13.4681C13.7292 14.3597 13.0333 15.2806 12.2 16.2306C11.3667 17.1806 10.4083 18.1556 9.325 19.1556C9.14167 19.3222 8.93333 19.4472 8.7 19.5306C8.46667 19.6139 8.23333 19.6556 8 19.6556ZM8 10.3306C8.55 10.3306 9.02083 10.1347 9.4125 9.74307C9.80417 9.3514 10 8.88057 10 8.33057C10 7.78057 9.80417 7.30973 9.4125 6.91807C9.02083 6.5264 8.55 6.33057 8 6.33057C7.45 6.33057 6.97917 6.5264 6.5875 6.91807C6.19583 7.30973 6 7.78057 6 8.33057C6 8.88057 6.19583 9.3514 6.5875 9.74307C6.97917 10.1347 7.45 10.3306 8 10.3306Z" fill="#A3897A"/>
</svg>
