<svg width="98" height="37" viewBox="0 0 98 37" fill="none" xmlns="http://www.w3.org/2000/svg">
<path d="M49.81 26.6546C49.81 27.595 49.6292 28.2746 49.0687 29.0693C48.5081 29.8641 47.9416 30.4405 46.9109 31.1382C46.1454 31.66 38.0507 36.5077 38.0507 36.5077C38.0507 36.5077 28.8108 31.6904 27.6957 31.0351C26.7856 30.5012 26.1165 29.7792 25.6404 28.9359C25.1582 28.0986 24.9171 27.2977 24.9171 26.5272L24.905 20.1446C24.905 19.4469 25.0678 18.7855 25.3872 18.1424C25.7127 17.5054 26.1406 16.9411 26.671 16.4497C27.2075 15.9582 27.7861 15.5699 28.419 15.2848C29.0518 14.9996 30.7937 14.7509 31.8907 14.9147C33.6447 15.1756 37.2671 16.3223 37.2671 16.3223C37.2671 16.3223 40.9679 15.0239 42.1252 14.7994C43.8249 14.4718 45.6692 14.9208 46.5432 15.3576C47.2786 15.7216 48.0501 16.3405 48.7553 17.1899C49.4604 18.0453 49.7498 19.6592 49.7859 20.5329C49.8944 22.8141 49.798 26.6546 49.798 26.6546M44.5542 24.6949V22.9901C44.5482 22.2559 44.4216 20.5875 43.8912 20.0778C43.3547 19.5621 42.4145 19.3437 41.5104 19.6107C40.0638 20.0354 37.5142 20.8787 37.5142 20.8787C37.5142 20.8787 34.603 19.7805 32.7346 19.6289C32.0354 19.5743 31.2096 19.9504 30.8661 20.3205C30.5225 20.6846 30.2513 21.5946 30.2513 22.0072V24.6585C30.2754 25.4594 30.5044 26.5575 30.9927 26.9519C32.8611 28.4687 37.906 30.8228 37.906 30.8228C37.906 30.8228 43.2824 27.2795 43.7887 26.9094C44.295 26.5393 44.5482 25.5504 44.5482 24.6949" fill="#EF7723"/>
<path d="M21.4212 27.9953H24.0371V35.3183H19.5708L19.2092 32.7701H5.15941L4.79777 35.3183H0V27.9953H2.5134C3.44764 27.0913 3.94189 25.714 4.12873 23.4935L4.55668 18.658C4.55668 18.658 4.54462 17.5901 5.47283 16.5041C6.25639 15.5819 7.80542 15.4302 7.80542 15.4302H21.4212V27.9953ZM9.99335 19.9988L9.65581 23.997C9.50513 25.6412 9.1676 26.9214 8.60705 27.9953H15.8941V19.9988H9.99937H9.99335Z" fill="#251A00"/>
<path d="M69.5255 15.4302H74.8597V32.7641H69.3266V23.2933L64.7398 28.3654H62.2385L57.6516 23.2933V32.7641H52.1185V15.4302H57.4889L63.4861 22.7229L69.5255 15.4302Z" fill="#251A00"/>
<path d="M97.6492 21.9824C97.7638 17.5837 94.2197 15.0598 87.7704 15.0598C84.9315 15.0598 81.8636 15.2358 79.0971 15.9517V20.7872C81.6406 19.9742 83.3765 19.4646 87.1858 19.41C90.4345 19.3614 91.7123 20.0288 91.7123 21.8793V22.3161C89.9403 21.946 87.903 21.7822 86.2214 21.7822C80.3206 21.7822 77.2828 23.9664 77.2828 27.5945C77.2828 30.8223 79.7299 33.1824 84.9255 33.1824C87.8488 33.1824 90.4285 32.515 92.9178 31.1863L94.4306 32.7698H97.6492C97.6492 32.7698 97.4684 29.081 97.6492 21.9885M86.6614 29.2084C84.7206 29.2084 83.5151 28.5046 83.5151 27.3276C83.5151 25.9867 85.0159 25.2769 87.5052 25.2769C88.7288 25.2769 90.2055 25.4771 91.8027 25.8472C91.5918 27.7644 89.5304 29.2084 86.6614 29.2084Z" fill="#251A00"/>
<path d="M19.625 1.9002V4.18752H16.6596V9.93917H13.7363V4.18752H10.7347V1.9002H19.625Z" fill="#251A00"/>
<path d="M29.2929 1.9002H31.8967V9.93917H29.0217V5.54656L26.9603 7.89454H25.7368L23.6694 5.54656V9.93917H20.8004V1.9002H23.4223L26.3455 5.2796L29.2929 1.9002Z" fill="#251A00"/>
<path d="M32.9516 5.96546C32.9516 3.41726 34.2957 1.70025 38.1773 1.70025C41.4863 1.70025 43.3909 3.41726 43.3909 5.96546C43.3909 8.51366 41.9866 10.2307 38.1773 10.2307C34.368 10.2307 32.9516 8.51366 32.9516 5.96546ZM40.4677 5.96546C40.4677 4.73989 40.0458 3.90263 38.1773 3.90263C36.1702 3.90263 35.8748 4.73989 35.8748 5.96546C35.8748 7.19102 36.2967 8.02829 38.1773 8.02829C39.9192 8.02829 40.4677 7.20922 40.4677 5.96546Z" fill="#251A00"/>
<path d="M61.3403 10.1219V12.6459H58.4653V10.1219C55.084 10.1219 53.6012 8.3018 53.6012 5.91741C53.6012 3.53302 54.8971 1.69468 58.4653 1.69468V0.153622H61.3403V1.69468C64.788 1.69468 66.1863 3.52089 66.1863 5.91741C66.1863 8.31394 64.9146 10.0855 61.3403 10.1219ZM58.5557 7.95597V3.86065C56.8741 3.86065 56.4401 4.79499 56.4401 5.91741C56.4401 7.03983 56.7535 7.95597 58.5557 7.95597ZM61.2318 7.95597C63.1184 7.95597 63.3716 7.02163 63.3716 5.91741C63.3716 4.81319 62.9979 3.86065 61.2318 3.86065V7.95597Z" fill="#251A00"/>
<path d="M69.9052 6.83909C69.9534 7.68242 70.8695 8.21026 72.5994 8.21026C74.2991 8.21026 75.8722 7.95544 75.9627 7.84624V9.76952C75.9627 9.76952 74.9018 10.1942 72.0147 10.1457C68.0909 10.0729 67.006 8.44688 67.006 5.94115C67.006 3.43542 68.5008 1.71235 72.081 1.70628C76.2098 1.69415 77.0415 4.00573 76.8306 6.84516H69.9052V6.83909ZM74.3353 5.21916C74.2569 4.36369 73.9555 3.64777 72.0991 3.64777C70.5983 3.64777 69.869 4.32122 69.869 5.21916H74.3353Z" fill="#251A00"/>
<path d="M88.1381 5.91735C88.1381 8.39274 86.5288 10.1219 84.0456 10.1219C82.828 10.1219 81.6346 9.92773 80.9113 9.26035V12.6458H78.0363V1.90089H79.742L80.5557 2.63502C81.5141 1.98583 82.7316 1.73101 84.0516 1.73101C86.5348 1.73101 88.1442 3.44195 88.1442 5.92341M85.3053 5.92341C85.3053 4.70998 84.5639 3.88485 83.256 3.88485C81.948 3.88485 80.8631 4.84346 80.8631 4.84346V6.85776C80.8631 6.85776 81.4658 7.88917 83.256 7.96804C84.5579 8.02265 85.3053 7.14291 85.3053 5.92948" fill="#251A00"/>
<path d="M97.9987 4.94036C98.0529 2.90787 96.4376 1.74298 93.5083 1.74298C92.2185 1.74298 90.8261 1.82792 89.5724 2.15554V4.38825C90.7297 4.01209 91.5193 3.77547 93.2491 3.7512C94.7258 3.72693 95.3045 4.03636 95.3045 4.89183V5.09204C94.5028 4.92216 93.5746 4.84329 92.8091 4.84329C90.127 4.84329 88.7467 5.85044 88.7467 7.53104C88.7467 9.02355 89.8557 10.1156 92.2185 10.1156C93.5445 10.1156 94.7138 9.80622 95.8469 9.19343L96.534 9.92149H97.9987C97.9987 9.92149 97.9143 8.21662 97.9987 4.94036ZM93.008 8.2773C92.128 8.2773 91.5796 7.94967 91.5796 7.40969C91.5796 6.79084 92.2606 6.46322 93.3938 6.46322C93.9483 6.46322 94.6173 6.55422 95.3467 6.7241C95.2502 7.60991 94.316 8.2773 93.008 8.2773Z" fill="#251A00"/>
<path d="M10.0959 4.94036C10.1501 2.90787 8.51069 1.74298 5.52113 1.74298C4.20717 1.74298 2.78471 1.82792 1.50691 2.15554V4.38825C2.68225 4.01209 3.48991 3.77547 5.2499 3.7512C6.75071 3.72693 7.34742 4.03636 7.34742 4.89183V5.09204C6.5277 4.92216 5.58743 4.84329 4.80387 4.84329C2.07349 4.84329 0.663086 5.85044 0.663086 7.53104C0.663086 9.02355 1.79623 10.1156 4.20114 10.1156C5.55729 10.1156 6.75071 9.80622 7.90193 9.19343L8.6011 9.92149H10.0899C10.0899 9.92149 10.0055 8.21662 10.0899 4.94036M5.00278 8.2773C4.1047 8.2773 3.54416 7.94967 3.54416 7.40969C3.54416 6.79084 4.2373 6.46322 5.38853 6.46322C5.9551 6.46322 6.63619 6.55422 7.37755 6.7241C7.28112 7.60991 6.32277 8.2773 4.99675 8.2773" fill="#251A00"/>
<path d="M49.5749 7.96155C48.062 7.96155 47.3086 7.11822 47.3086 5.92299C47.3086 4.72776 48.1042 3.88443 49.5568 3.88443C50.3765 3.88443 52.3535 4.15745 52.6669 4.49721L52.691 4.47294V2.13709C51.6724 1.82766 50.4368 1.70025 49.3579 1.70025C46.1755 1.70025 44.319 3.44759 44.319 5.92299C44.319 8.39838 46.1755 10.1457 49.3338 10.1457C50.4006 10.1457 51.6242 10.0244 52.685 9.72102V7.30023C52.028 7.822 50.4549 7.96762 49.5689 7.96762" fill="#251A00"/>
</svg>
